HIERARCHY
ROOT hip
{
  OFFSET 0 0 0
  CHANNELS 6 Xposition Yposition Zposition Zrotation Yrotation Xrotation
  JOINT abdomen
  {
    OFFSET 0 20.6881 -0.73152
    CHANNELS 3 Zrotation Xrotation Yrotation
    JOINT chest
    {
      OFFSET 0 11.7043 -0.48768
      CHANNELS 3 Zrotation Xrotation Yrotation
      JOINT neck
      {
        OFFSET 0 22.1894 -2.19456
        CHANNELS 3 Zrotation Xrotation Yrotation
        JOINT head
        {
          OFFSET -0.24384 7.07133 1.2192
          CHANNELS 3 Zrotation Xrotation Yrotation
          JOINT leftEye
          {
            OFFSET 4.14528 8.04674 8.04672
            CHANNELS 3 Zrotation Xrotation Yrotation
            End Site
            {
              OFFSET 1 0 0
            }
          }
          JOINT rightEye
          {
            OFFSET -3.6576 8.04674 8.04672
            CHANNELS 3 Zrotation Xrotation Yrotation
            End Site
            {
              OFFSET 1 0 0
            }
          }
        }
      }
      JOINT rCollar
      {
        OFFSET -2.68224 19.2634 -4.8768
        CHANNELS 3 Zrotation Xrotation Yrotation
        JOINT rShldr
        {
          OFFSET -8.77824 -1.95073 1.46304
          CHANNELS 3 Zrotation Xrotation Yrotation
          JOINT rForeArm
          {
            OFFSET -28.1742 -1.7115 0.48768
            CHANNELS 3 Zrotation Xrotation Yrotation
            JOINT rHand
            {
              OFFSET -22.5879 0.773209 7.07136
              CHANNELS 3 Zrotation Xrotation Yrotation
              JOINT rThumb1
              {
                OFFSET -1.2192 -0.487915 3.41376
                CHANNELS 3 Zrotation Xrotation Yrotation
                JOINT rThumb2
                {
                  OFFSET -3.37035 -0.52449 3.41376
                  CHANNELS 3 Zrotation Xrotation Yrotation
                  End Site
                  {
                    OFFSET -1.78271 -1.18214 1.43049
                  }
                }
              }
              JOINT rIndex1
              {
                OFFSET -7.75947 0.938293 5.60832
                CHANNELS 3 Zrotation Xrotation Yrotation
                JOINT rIndex2
                {
                  OFFSET -2.54057 -0.884171 1.56538
                  CHANNELS 3 Zrotation Xrotation Yrotation
                  End Site
                  {
                    OFFSET -1.62519 -0.234802 1.16502
                  }
                }
              }
              JOINT rMid1
              {
                OFFSET -8.24714 1.18213 3.41376
                CHANNELS 3 Zrotation Xrotation Yrotation
                JOINT rMid2
                {
                  OFFSET -3.10165 -0.590103 1.0647
                  CHANNELS 3 Zrotation Xrotation Yrotation
                  End Site
                  {
                    OFFSET -2.48547 -0.328903 0.83742
                  }
                }
              }
              JOINT rRing1
              {
                OFFSET -8.82822 0.546677 1.51678
                CHANNELS 3 Zrotation Xrotation Yrotation
                JOINT rRing2
                {
                  OFFSET -2.60934 -0.819778 -0.0198488
                  CHANNELS 3 Zrotation Xrotation Yrotation
                  End Site
                  {
                    OFFSET -2.33842 -0.294052 0.168128
                  }
                }
              }
              JOINT rPinky1
              {
                OFFSET -8.27202 -0.0477905 -0.4584
                CHANNELS 3 Zrotation Xrotation Yrotation
                JOINT rPinky2
                {
                  OFFSET -1.82734 -0.647385 -0.700984
                  CHANNELS 3 Zrotation Xrotation Yrotation
                  End Site
                  {
                    OFFSET -1.69225 -0.51767 -0.607171
                  }
                }
              }
            }
          }
        }
      }
      JOINT lCollar
      {
        OFFSET 2.68224 19.2634 -4.8768
        CHANNELS 3 Zrotation Xrotation Yrotation
        JOINT lShldr
        {
          OFFSET 8.77824 -1.95073 1.46304
          CHANNELS 3 Zrotation Xrotation Yrotation
          JOINT lForeArm
          {
            OFFSET 28.1742 -1.7115 0.48768
            CHANNELS 3 Zrotation Xrotation Yrotation
            JOINT lHand
            {
              OFFSET 22.5879 0.773209 7.07136
              CHANNELS 3 Zrotation Xrotation Yrotation
              JOINT lThumb1
              {
                OFFSET 1.2192 -0.487915 3.41376
                CHANNELS 3 Zrotation Xrotation Yrotation
                JOINT lThumb2
                {
                  OFFSET 3.37035 -0.52449 3.41376
                  CHANNELS 3 Zrotation Xrotation Yrotation
                  End Site
                  {
                    OFFSET 1.78271 -1.18214 1.43049
                  }
                }
              }
              JOINT lIndex1
              {
                OFFSET 7.75947 0.938293 5.60832
                CHANNELS 3 Zrotation Xrotation Yrotation
                JOINT lIndex2
                {
                  OFFSET 2.54057 -0.884171 1.56538
                  CHANNELS 3 Zrotation Xrotation Yrotation
                  End Site
                  {
                    OFFSET 1.62519 -0.234802 1.16502
                  }
                }
              }
              JOINT lMid1
              {
                OFFSET 8.24714 1.18213 3.41376
                CHANNELS 3 Zrotation Xrotation Yrotation
                JOINT lMid2
                {
                  OFFSET 3.10165 -0.590103 1.0647
                  CHANNELS 3 Zrotation Xrotation Yrotation
                  End Site
                  {
                    OFFSET 2.48547 -0.328903 0.83742
                  }
                }
              }
              JOINT lRing1
              {
                OFFSET 8.82822 0.546677 1.51678
                CHANNELS 3 Zrotation Xrotation Yrotation
                JOINT lRing2
                {
                  OFFSET 2.60934 -0.819778 -0.0198488
                  CHANNELS 3 Zrotation Xrotation Yrotation
                  End Site
                  {
                    OFFSET 2.33842 -0.294052 0.168128
                  }
                }
              }
              JOINT lPinky1
              {
                OFFSET 8.27202 -0.0477905 -0.4584
                CHANNELS 3 Zrotation Xrotation Yrotation
                JOINT lPinky2
                {
                  OFFSET 1.82734 -0.647385 -0.700984
                  CHANNELS 3 Zrotation Xrotation Yrotation
                  End Site
                  {
                    OFFSET 1.69225 -0.51767 -0.607171
                  }
                }
              }
            }
          }
        }
      }
    }
  }
  JOINT rButtock
  {
    OFFSET -8.77824 4.35084 1.2192
    CHANNELS 3 Zrotation Xrotation Yrotation
    JOINT rThigh
    {
      OFFSET 0 -1.70687 -2.19456
      CHANNELS 3 Zrotation Xrotation Yrotation
      JOINT rShin
      {
        OFFSET 0 -36.8199 0.73152
        CHANNELS 3 Zrotation Xrotation Yrotation
        JOINT rFoot
        {
          OFFSET 0.73152 -45.1104 -5.12064
          CHANNELS 3 Zrotation Xrotation Yrotation
          End Site
          {
            OFFSET -1.1221 -3.69964 12.103
          }
        }
      }
    }
  }
  JOINT lButtock
  {
    OFFSET 8.77824 4.35084 1.2192
    CHANNELS 3 Zrotation Xrotation Yrotation
    JOINT lThigh
    {
      OFFSET 0 -1.70687 -2.19456
      CHANNELS 3 Zrotation Xrotation Yrotation
      JOINT lShin
      {
        OFFSET 0 -36.8199 0.73152
        CHANNELS 3 Zrotation Xrotation Yrotation
        JOINT lFoot
        {
          OFFSET -0.73152 -45.1104 -5.12064
          CHANNELS 3 Zrotation Xrotation Yrotation
          End Site
          {
            OFFSET 1.1221 -3.69964 12.103
          }
        }
      }
    }
  }
}
MOTION
Frames:	7
Frame Time:	0.03333
-1.4401000000000002 55.760600000000004 -0.51 164.368724 -62.511709 -164.513777 -11.241926 8.162321 -94.55171 2.965931 4.991519 101.111483 1.778315 12.873167 74.705231 -31.326083 2.039774 -120.419545 -28.592728 -0.832083 3.264433 -8.282579 -3.293544 43.312463 -160.923867 -47.647223 174.723597 -120.702322 -26.386593 -151.362411 -24.998472 15.411681 -53.865127 111.971673 -67.372571 95.928916 -88.080474 36.289485 50.952348 66.737501 -37.756058 18.359052 -145.062507 -44.899098 125.977974 174.071928 -66.186188 103.11386 -3.55447 43.355356 15.20754 -8.622502 8.775566 -12.519315 -130.638224 7.318567 165.168779 -59.593772 -83.209719 -93.309129 -152.427982 49.467302 -171.613543 -149.469621 -1.333494 -161.368705 85.624066 71.800834 -89.091248 -70.185667 0.922885 -59.348733 -81.082938 22.610826 -84.956171 44.898799 42.019635 -22.6943 89.750376 19.039644 -40.00593 92.358946 -70.546982 -149.017245 154.918347 -28.744273 -137.393872 -28.245356 84.600805 38.062146 157.81103 6.969858 -135.046959 -7.65959 -25.531805 7.293141 42.799873 -81.844702 71.423758 -166.159736 -13.758305 -174.636176 -179.858554 61.220686 104.887724 91.297449 -14.141067 76.203191 83.269149 36.97629 71.67369 -159.374545 15.036656 55.724605 61.896974 20.374142 -75.454305 -46.353503 -6.585708 25.952037 171.988063 65.277131 8.808293 -134.514249 68.699272 41.717067 42.029852 3.17623 -3.811972 -137.049703 14.454221 33.10689
-1.1344999999999998 55.9759 -0.47559999999999997 163.711422 -58.656032 -162.826786 -15.858639 8.68589 1.78671 7.950489 -5.415431 7.501866 -5.906404 29.322821 -158.988498 24.738358 40.750299 99.663312 -32.258704 -10.72032 35.950793 -14.581971 -6.452073 47.551204 -7.74783 -44.962434 -20.77301 54.865137 4.132438 34.597357 6.814792 3.843164 34.799029 -14.369992 44.463052 3.720557 -82.187093 37.539416 50.893416 -125.095506 -13.612345 85.967851 -37.71539 34.774025 48.203585 -164.093302 -28.26919 116.462683 -1.818706 44.245526 9.473306 -114.84649 76.133526 91.666661 3.078021 2.590996 1.660981 2.246803 -0.339361 3.802999 -106.887092 -70.10448 -89.61807 -167.297468 6.278364 -130.209075 -3.469257 -52.338893 12.879524 81.762499 -22.28322 98.445861 177.733 -20.256887 90.520196 10.935179 -23.276282 6.117794 179.786093 -0.076249 -64.76261 9.424457 -31.46487 -73.331609 143.100311 -7.457627 -133.595277 -26.166736 87.412066 31.711855 4.280272 1.032239 -4.290261 5.663699 -3.413398 -11.10726 53.134366 75.93421 -85.808659 143.134027 -28.067456 164.870367 -5.647061 -14.807135 31.702331 -27.180647 -79.402888 -35.562475 64.281013 -0.733984 41.861158 -115.055685 -15.163067 112.315374 50.122087 -49.141338 -104.054658 89.630523 -26.360125 -17.562517 5.19069 6.255845 1.339996 6.940541 1.506512 87.563735 42.693166 -2.650473 1.643827 -112.88783 35.446651 17.627106
-1.2889 55.7197 -0.20470000000000002 165.586413 -53.27934 -164.048056 -13.119917 9.783889 -100.559688 7.908872 7.151584 106.97778 -1.773954 37.937808 174.201999 -2.746406 49.433815 144.907145 26.779947 2.863127 11.986085 0.791667 0.360313 48.943024 -82.903316 73.165226 81.63732 -40.236362 -4.338342 9.949155 175.977285 -32.654206 -155.24338 -12.360424 40.220464 1.822638 24.20563 -5.72211 -4.706737 115.905499 -67.94212 60.884249 -170.347081 -52.495604 104.839636 -163.292797 -8.055839 106.81281 18.953159 -22.759267 0.251659 -173.4195 21.604009 138.133466 -72.182464 71.965355 87.650895 -156.041259 -20.073186 -179.408548 -164.130314 25.952906 -168.79783 -154.667575 28.45784 -163.90157 157.064394 -48.900155 -170.595454 -128.097051 -17.26127 170.966106 80.003034 -24.265579 -54.281179 -134.203837 -82.141228 -118.17704 -104.486529 -37.505223 -58.184637 69.290372 -80.066405 40.031439 131.241909 35.780536 -120.172245 -6.813701 -12.426049 32.981595 -53.716755 -78.07212 -34.090617 72.081992 55.065685 -83.417204 138.621967 -4.693404 170.327291 -30.828563 41.883908 18.303806 122.295006 31.905653 124.497848 -72.571106 35.663003 24.358296 8.9504 -4.685803 -10.905335 -60.426029 -63.448389 -58.089879 -63.680525 72.647195 -117.092122 -59.545895 9.640931 -172.880041 133.215261 61.354134 34.003613 -109.185326 63.009611 -68.130303 -23.350343 47.095149 162.190097 -31.733917 62.439314 -73.997741
-1.4631999999999998 54.8374 -0.014899999999999998 165.212562 -52.654639 -164.510083 -14.085036 12.21827 -80.880916 11.061317 4.708267 87.302279 6.103033 31.851689 104.975082 -41.524936 19.803996 -139.814167 -2.281233 0.036201 -1.818061 1.271788 0.600728 50.565915 -161.076904 -4.721029 163.658133 93.392491 57.84442 -86.786105 99.916737 -52.405435 47.515787 -178.522913 15.789283 143.539101 -74.166351 38.19225 50.131669 -64.891767 12.422397 51.918282 -34.147878 47.336868 40.939615 -3.263833 1.64698 -0.622326 -152.731674 -11.582258 137.793519 38.38648 -26.70979 11.114906 -150.261453 -23.383045 -166.544774 -146.252613 -45.226747 -155.113841 -151.418017 34.161768 -170.784304 -18.280777 -45.378925 -3.405339 144.353226 -72.728495 169.854336 -143.106059 -10.182578 148.109044 3.734808 -29.958547 -92.853611 7.297007 -31.728797 4.307128 176.063738 5.40419 -86.917146 -60.331725 -37.765555 -54.712521 173.500773 -64.753766 -130.587054 75.982066 49.714255 -74.140335 160.256155 13.367698 -138.922303 5.342643 15.51235 13.524565 71.123097 -77.762062 92.689141 169.923869 64.303412 177.506546 127.87925 27.697232 119.776997 -24.43468 -9.391976 32.977783 8.220837 -5.97643 -9.783129 -60.415618 -62.066387 -57.783562 -70.72561 71.308679 -85.684829 -161.392331 25.870221 -155.643643 166.166421 66.263098 15.056248 -145.563768 71.820414 50.60598 39.87189 13.871047 -104.839434 29.296483 15.366113 47.488614
-1.6264 54.5332 -0.0408 164.921731 -53.02532 -164.462042 -14.131365 12.787153 -83.187265 10.37761 4.508257 89.748206 5.606818 36.472638 137.880462 -32.377097 42.442346 -168.137141 -15.075295 0.883184 -6.667154 -4.154119 -1.876428 48.602693 -157.760514 14.818822 158.275827 -5.266737 9.551807 -31.171609 111.047863 52.221257 -97.398267 -95.351986 73.177227 73.604691 -163.640396 -11.541488 86.327377 -145.578593 -2.531559 71.400377 17.821303 6.825733 -7.468164 -2.082021 12.013905 15.79356 -31.989734 49.537035 38.425061 2.191445 -25.374276 -24.849439 -154.304981 -23.94092 -168.623046 167.105211 55.396554 -165.916893 -16.28952 -45.037524 1.860698 38.771087 26.767867 -19.649064 148.846331 -65.005872 174.21345 116.288675 -59.703562 69.868087 -159.343579 -71.890869 105.403338 12.035802 -18.604206 3.599613 -163.978386 -10.72597 -90.475622 137.648583 9.948574 -50.782331 142.76483 7.214732 -116.609372 146.602876 10.12473 -121.575782 4.818683 -0.744486 -0.923198 -94.137977 -64.251115 -64.136643 -8.942133 -2.169295 -10.497813 -37.783469 49.330933 17.980702 -0.393262 -16.056791 44.132328 28.823405 28.319041 -61.889806 -1.406629 -3.989737 -19.43884 -41.349351 -68.30999 -0.0 70.108004 50.662118 17.570301 -150.678778 25.481276 84.364198 1.255099 11.491655 -6.27569 12.893119 -3.524876 -97.33964 -39.901745 -15.618919 82.091726 124.298836 27.305968 -35.499422
-1.7038000000000002 54.3531 -0.2062 164.833779 -53.498704 -164.147294 -16.648856 15.05352 3.753744 7.225419 -12.055409 4.375473 -10.09367 21.034052 -24.381964 22.853946 -30.300353 -10.577505 -21.577966 1.168272 -6.125073 -7.52873 -3.452748 49.223914 -2.182981 -36.521952 -8.187216 -101.868539 25.894573 132.032061 -19.463797 12.517559 -50.576238 132.221236 -65.660438 112.32004 -137.109368 11.825918 81.419085 -151.354228 -16.782927 70.032731 -120.905515 9.032661 123.005757 1.658877 -9.960848 -19.474359 -75.178905 57.704196 78.922289 -45.800953 79.407863 47.560908 -12.99752 3.467307 1.290133 -131.279394 -2.979971 170.27092 -11.356769 -26.221631 11.65301 88.150873 61.694001 -29.087704 0.00645 -2.537521 5.281954 85.409586 -27.81812 144.417142 176.272598 -3.053441 81.847879 11.570385 -25.248548 6.261778 -53.022124 -47.62756 -31.892878 111.535443 55.655847 -65.914441 15.181907 19.037729 -7.330698 177.909536 -14.669116 -109.580723 -16.943835 -46.427697 -3.206929 46.132836 53.154129 -45.902452 -17.462093 -25.650822 -6.181035 -12.011251 -0.447241 26.281084 -17.781487 -4.775326 36.29586 -171.48513 -57.467079 173.573429 75.945258 17.761478 47.843725 -136.973615 -10.988548 78.457847 72.021743 -19.506263 -86.148042 150.25318 -32.522536 1.843473 -49.525818 28.552446 -27.739202 62.101505 18.731419 -29.497765 -40.501095 9.158891 48.64364 33.6514 19.680012 38.823518
-1.7033 54.234300000000005 -0.40340000000000004 164.899527 -53.985056 -163.782366 -18.364286 14.143268 53.644448 -3.013672 -14.006315 -46.565902 3.902074 35.221458 145.710273 -28.243392 46.547043 -176.543117 -25.252091 1.074318 -4.793322 -8.833187 -4.130257 50.051956 -136.537257 55.734036 135.432581 153.512779 4.758881 -171.912289 176.544326 -18.650693 114.520534 165.618077 -31.76188 140.249554 -178.322841 -22.465097 84.134196 116.770004 -60.738085 90.146326 -139.417753 -31.653992 130.435441 -1.074384 31.074559 -14.119537 -150.223153 -10.41074 142.524434 1.764913 23.518194 17.321027 -154.969767 12.835287 174.733461 -71.588695 82.55007 64.416625 -62.904274 71.073326 89.232434 -83.966588 59.902435 132.213524 10.078404 43.680829 -10.40084 98.617665 -25.407397 -165.843775 7.055306 -5.42676 134.853381 162.854245 5.447853 -140.990506 -94.037147 -42.755547 -60.194093 131.666959 47.252816 -62.829763 151.458979 -19.834787 -126.077921 -30.348338 -23.794696 24.986484 84.223423 54.773944 -74.297338 159.874703 22.710912 -145.761353 -20.089375 -20.645305 -7.927645 -14.83994 25.341249 21.575033 1.621349 -14.412782 46.43978 14.219204 14.641109 -51.139577 22.412951 -8.507546 -0.0 -80.25742 -55.79835 -167.253602 -82.242316 -35.361425 -27.384044 177.587564 34.406269 -116.323055 111.020955 47.525805 30.025924 -89.279838 39.560342 -90.458679 -45.16387 28.690655 -88.730648 -93.563442 18.763657 -177.738994
